{"title":"In the Name of the King 2, Two Worlds DVDrip English Klam","uid":6993225,"size":1620128803,"categoryP":"video","categoryS":"movies","magnet":"?xt=urn:btih:0ecef9a4201350d3a8c8f854d4cb826ab79c2c8c&amp;dn=In+the+Name+of+the+King+2%2C+Two+Worlds+DVDrip+English+Klam&amp;tr=udp%3A%2F%2Ftracker.openbittorrent.com%3A80&amp;tr=udp%3A%2F%2Fopen.demonii.com%3A1337&amp;tr=udp%3A%2F%2Ftracker.coppersurfer.tk%3A6969&amp;tr=udp%3A%2F%2Fexodus.desync.com%3A6969","seeders":1,"leechers":0,"uploader":"Klambake","files":-1,"time":1327776045,"description":"With: Dolph Lundgren, Natassia Malthe and Lochlyn Munro\n\nEen oorlogsveteraan (Dolph Lundgren) wordt op een nacht aangevallen in zijn huis door ninjas. Hij komt samen met hen in een vortex terecht die hem terug in de tijd stuurt. Ze belanden in de Middeleeuwen. Hij komt er achter dat hij de zoon van Farmer is en naar de 'toekomst' is gestuurd, waar hij opgegroeid blijkt te zijn een weeshuis. Het Koninkrijk Ehb blijkt vernietigd en iedereen is inmiddels dood. Hij is de enige overlevende van het Koninkrijk Ehb en zou het weer opnieuw aan de macht kunnen krijgen.\n\nAn ex-Special Forces soldier gets thrown back to medieval times to fulfill an ancient prophecy and ends up finding redemption for his own battlefield experiences. \n\n------------------------ Dutch Friends ------------------------\n---------------------------------------------------------------\n- Bezoek ook eens mijn vrienden op: &lt;a href=&quot; http://www.Film-Test.nl&quot; rel=&quot;nofollow&quot; target=&quot;_NEW&quot;&gt; http://www.Film-Test.nl&lt;/a&gt; --\n----- voor mijn Nederlandse Sync. ondertitels ---- en meer ----\n------- http://www.Film-Test.nl ---- voor Films en meer -------\n---------------------------------------------------------------\n\nGeneral:\n\nComplete name                    : In the Name of the King 2\\Two Worlds.avi\nFormat                           : AVI\nFormat/Info                      : Audio Video Interleave\nFile size                        : 1.51 GiB\nDuration                         : 1h 32mn\nOverall bit rate                 : 2 347 Kbps\n\nVideo:\n\nFormat                           : MPEG-4 Visual\nFormat profile                   : Simple@L3\nFormat settings, BVOP            : No\nFormat settings, QPel            : No\nFormat settings, GMC             : No warppoints\nFormat settings, Matrix          : Default (H.263)\nCodec ID                         : XVID\nCodec ID/Hint                    : XviD\nDuration                         : 1h 32mn\nBit rate                         : 1 952 Kbps\nWidth                            : 704 pixels\nHeight                           : 396 pixels\nDisplay aspect ratio             : 16:9\nFrame rate                       : 25.000 fps\nColor space                      : YUV\nChroma subsampling               : 4:2:0\nBit depth                        : 8 bits\nScan type                        : Progressive\nCompression mode                 : Lossy\nBits/(Pixel*Frame)               : 0.280\nStream size                      : 1.25 GiB (83%)\nWriting library                  : XviD 1.1.2 (UTC 2006-11-01)\n\nAudio:\n\nFormat                           : AC-3\nFormat/Info                      : Audio Coding 3\nMode extension                   : CM (complete main)\nCodec ID                         : 2000\nDuration                         : 1h 32mn\nBit rate mode                    : Constant\nBit rate                         : 384 Kbps\nChannel(s)                       : 6 channels\nChannel positions                : Front: L C R, Side: L R, LFE\nSampling rate                    : 48.0 KHz\nBit depth                        : 16 bits\nCompression mode                 : Lossy\nStream size                      : 253 MiB (16%)\nAlignment                        : Aligned on interleaves\nInterleave, duration             : 32 ms (0.80 video frame)\nInterleave, preload duration     : 64 ms\n\n","torrent":{"xt":"urn:btih:0ecef9a4201350d3a8c8f854d4cb826ab79c2c8c","amp;dn":"In+the+Name+of+the+King+2%2C+Two+Worlds+DVDrip+English+Klam","amp;tr":["udp%3A%2F%2Ftracker.openbittorrent.com%3A80","udp%3A%2F%2Fopen.demonii.com%3A1337","udp%3A%2F%2Ftracker.coppersurfer.tk%3A6969","udp%3A%2F%2Fexodus.desync.com%3A6969"],"infoHash":"0ecef9a4201350d3a8c8f854d4cb826ab79c2c8c","infoHashBuffer":{"type":"Buffer","data":[14,206,249,164,32,19,80,211,168,200,248,84,212,203,130,106,183,156,44,140]},"announce":[],"urlList":[]}}